<?xml version="1.0" standalone="no"?>
<!DOCTYPE svg PUBLIC "-//W3C//DTD SVG 20010904//EN"
 "http://www.w3.org/TR/2001/REC-SVG-20010904/DTD/svg10.dtd">
<svg version="1.0" xmlns="http://www.w3.org/2000/svg"
 width="512.000000pt" height="512.000000pt" viewBox="0 0 512.000000 512.000000"
 preserveAspectRatio="xMidYMid meet">
<metadata>
Created by potrace 1.14, written by Peter Selinger 2001-2017
</metadata>
<g transform="translate(0.000000,512.000000) scale(0.100000,-0.100000)"
fill="#000000" stroke="none">
<path d="M2379 5116 c-2 -2 -35 -6 -74 -9 -224 -20 -441 -74 -749 -189 -15 -6
-85 -40 -155 -75 -552 -282 -997 -769 -1219 -1333 -55 -141 -105 -302 -126
-410 -44 -224 -51 -299 -50 -550 0 -113 3 -232 8 -265 4 -33 10 -76 12 -95 3
-19 7 -46 10 -60 2 -14 9 -47 14 -75 51 -286 188 -621 364 -890 272 -414 652
-740 1096 -940 197 -88 443 -163 635 -191 22 -3 51 -8 65 -10 153 -26 541 -25
710 2 181 28 299 57 459 110 149 50 178 62 333 139 382 191 735 502 974 859
56 84 64 117 39 153 -14 19 -11 27 28 102 33 64 46 81 62 79 45 -4 66 13 97
80 77 174 158 462 183 652 26 203 28 536 4 685 -4 28 -10 68 -13 90 -3 22 -8
51 -11 65 -3 14 -10 45 -15 70 -52 262 -188 589 -343 829 -319 493 -782 855
-1342 1049 -70 25 -284 81 -335 88 -19 3 -46 7 -60 9 -14 3 -41 7 -60 10 -19
3 -53 7 -75 11 -44 6 -460 15 -466 10z"/>
</g>
</svg>
